<?xml version="1.0" encoding="UTF-8" standalone="no"?>
<svg
   viewBox="0 0 821.56887 232.52212"
   version="1.1"
   id="svg21"
   sodipodi:docname="everest_logo.svg"
   width="821.56885"
   height="232.52213"
   inkscape:version="1.4.2 (f4327f4, 2025-05-13)"
   xmlns:inkscape="http://www.inkscape.org/namespaces/inkscape"
   xmlns:sodipodi="http://sodipodi.sourceforge.net/DTD/sodipodi-0.dtd"
   xmlns="http://www.w3.org/2000/svg"
   xmlns:svg="http://www.w3.org/2000/svg">
  <sodipodi:namedview
     id="namedview21"
     pagecolor="#ffffff"
     bordercolor="#000000"
     borderopacity="0.25"
     inkscape:showpageshadow="2"
     inkscape:pageopacity="0.0"
     inkscape:pagecheckerboard="0"
     inkscape:deskcolor="#d1d1d1"
     inkscape:zoom="3.1028704"
     inkscape:cx="300.68932"
     inkscape:cy="123.91752"
     inkscape:window-width="5160"
     inkscape:window-height="2126"
     inkscape:window-x="2869"
     inkscape:window-y="-11"
     inkscape:window-maximized="1"
     inkscape:current-layer="svg21" />
  <defs
     id="defs14">
    <style
       id="style1">.j{fill:#fff;}.k{fill:url(#f);}.l{clip-path:url(#e);}.m{clip-path:url(#d);}.n{fill:url(#h);}.o{fill:none;}.p{clip-path:url(#i);}.q{fill:#002484;}.r{clip-path:url(#g);}</style>
    <clipPath
       id="d">
      <rect
         class="o"
         width="1139.59"
         height="233.91"
         id="rect1"
         x="0"
         y="0" />
    </clipPath>
    <clipPath
       id="e">
      <path
         class="o"
         d="M 0,116.95 C 0,181.54 52.36,233.9 116.95,233.9 181.54,233.9 233.9,181.54 233.9,116.95 233.9,52.36 181.54,0 116.95,0 52.36,0 0,52.36 0,116.95"
         id="path1" />
    </clipPath>
    <linearGradient
       id="f"
       x1="-386.98001"
       y1="636.65997"
       x2="-385.98001"
       y2="636.65997"
       gradientTransform="matrix(233.94,0,0,-233.94,90532.27,149060.04)"
       gradientUnits="userSpaceOnUse">
      <stop
         offset="0"
         stop-color="#ff1543"
         id="stop1" />
      <stop
         offset=".23"
         stop-color="#ff1845"
         id="stop2" />
      <stop
         offset=".4"
         stop-color="#ff214d"
         id="stop3" />
      <stop
         offset=".56"
         stop-color="#ff3159"
         id="stop4" />
      <stop
         offset=".7"
         stop-color="#ff486c"
         id="stop5" />
      <stop
         offset=".83"
         stop-color="#ff6583"
         id="stop6" />
      <stop
         offset=".96"
         stop-color="#ff89a0"
         id="stop7" />
      <stop
         offset="1"
         stop-color="#ff96aa"
         id="stop8" />
    </linearGradient>
    <clipPath
       id="g">
      <path
         class="o"
         d="M 0.46,106.52 C 0.16,109.96 0,113.44 0,116.95 0,181.54 52.36,233.9 116.95,233.9 c 64.59,0 112.56,-48.08 116.68,-108.93 v -0.19 l -76.2,-56.36 v 41.29 L 76.77,49.88 Z"
         id="path8" />
    </clipPath>
    <linearGradient
       id="h"
       x1="-386.98001"
       y1="636.71997"
       x2="-385.98001"
       y2="636.71997"
       gradientTransform="matrix(222.02,0,0,-222.02,85898.26,141510.45)"
       gradientUnits="userSpaceOnUse">
      <stop
         offset="0"
         stop-color="#123eb7"
         id="stop9" />
      <stop
         offset=".05"
         stop-color="#0e39ad"
         id="stop10" />
      <stop
         offset=".19"
         stop-color="#082f9a"
         id="stop11" />
      <stop
         offset=".36"
         stop-color="#03288d"
         id="stop12" />
      <stop
         offset=".57"
         stop-color="#002586"
         id="stop13" />
      <stop
         offset="1"
         stop-color="#002484"
         id="stop14" />
    </linearGradient>
    <clipPath
       id="i">
      <circle
         class="o"
         cx="116.95"
         cy="116.95"
         r="116.95"
         id="circle14" />
    </clipPath>
    <mask
       maskUnits="userSpaceOnUse"
       id="mask16">
      <circle
         cx="64.03392"
         cy="64.03392"
         fill="url(#radial-gradient)"
         stroke-width="0"
         id="circle16"
         style="fill:#ffffff;fill-opacity:1"
         r="63.74976" />
    </mask>
    <radialGradient
       id="radial-gradient"
       cx="64.03392"
       cy="64.03392"
       fx="49.353233"
       fy="82.396118"
       r="59.086895"
       gradientUnits="userSpaceOnUse">
      <stop
         offset="0"
         stop-color="#f5aba7"
         id="stop1-0" />
      <stop
         offset=".217861041112723"
         stop-color="#f4a8a5"
         id="stop2-9" />
      <stop
         offset=".361136125615505"
         stop-color="#f39f9f"
         id="stop3-0" />
      <stop
         offset=".482893104808535"
         stop-color="#f29094"
         id="stop4-0" />
      <stop
         offset=".592650507232557"
         stop-color="#ef7b86"
         id="stop5-6" />
      <stop
         offset=".694335183107659"
         stop-color="#ec5f73"
         id="stop6-1" />
      <stop
         offset=".78871442354024"
         stop-color="#e93e5d"
         id="stop7-3" />
      <stop
         offset=".860573681175441"
         stop-color="#e62048"
         id="stop8-8" />
    </radialGradient>
    <clipPath
       id="clippath">
      <circle
         cx="64.03392"
         cy="64.03392"
         r="64.03392"
         fill="none"
         stroke-width="0"
         id="circle8" />
    </clipPath>
    <linearGradient
       id="linear-gradient"
       x1="32.965416"
       y1="147.10043"
       x2="93.746849"
       y2="41.823895"
       gradientUnits="userSpaceOnUse">
      <stop
         offset="0"
         stop-color="#284899"
         id="stop9-9" />
      <stop
         offset=".138867226110765"
         stop-color="#273f87"
         id="stop10-3" />
      <stop
         offset=".311629315711017"
         stop-color="#26397a"
         id="stop11-4" />
      <stop
         offset=".536330265490111"
         stop-color="#263673"
         id="stop12-4" />
      <stop
         offset="1"
         stop-color="#263571"
         id="stop13-6" />
    </linearGradient>
    <mask
       maskUnits="userSpaceOnUse"
       id="mask16-6">
      <circle
         cx="64.03392"
         cy="64.03392"
         fill="url(#radial-gradient)"
         stroke-width="0"
         id="circle16-6"
         style="fill:#ffffff;fill-opacity:1"
         r="63.74976" />
    </mask>
    <radialGradient
       id="radial-gradient-1"
       cx="64.03392"
       cy="64.03392"
       fx="49.353233"
       fy="82.396118"
       r="59.086895"
       gradientUnits="userSpaceOnUse">
      <stop
         offset="0"
         stop-color="#f5aba7"
         id="stop1-0-8" />
      <stop
         offset=".217861041112723"
         stop-color="#f4a8a5"
         id="stop2-9-4" />
      <stop
         offset=".361136125615505"
         stop-color="#f39f9f"
         id="stop3-0-9" />
      <stop
         offset=".482893104808535"
         stop-color="#f29094"
         id="stop4-0-6" />
      <stop
         offset=".592650507232557"
         stop-color="#ef7b86"
         id="stop5-6-3" />
      <stop
         offset=".694335183107659"
         stop-color="#ec5f73"
         id="stop6-1-7" />
      <stop
         offset=".78871442354024"
         stop-color="#e93e5d"
         id="stop7-3-8" />
      <stop
         offset=".860573681175441"
         stop-color="#e62048"
         id="stop8-8-8" />
    </radialGradient>
    <clipPath
       id="clippath-2">
      <circle
         cx="64.03392"
         cy="64.03392"
         r="64.03392"
         fill="none"
         stroke-width="0"
         id="circle8-9" />
    </clipPath>
    <linearGradient
       id="linear-gradient-1"
       x1="32.965416"
       y1="147.10043"
       x2="93.746849"
       y2="41.823895"
       gradientUnits="userSpaceOnUse">
      <stop
         offset="0"
         stop-color="#284899"
         id="stop9-9-3" />
      <stop
         offset=".138867226110765"
         stop-color="#273f87"
         id="stop10-3-5" />
      <stop
         offset=".311629315711017"
         stop-color="#26397a"
         id="stop11-4-9" />
      <stop
         offset=".536330265490111"
         stop-color="#263673"
         id="stop12-4-8" />
      <stop
         offset="1"
         stop-color="#263571"
         id="stop13-6-4" />
    </linearGradient>
  </defs>
  <g
     id="a"
     transform="translate(-0.25982526,-2.1642165)" />
  <g
     id="g1"
     transform="translate(0,-51.351725)">
    <polygon
       class="q"
       points="354.77,148.41 412.88,148.41 412.88,175.43 321.56,175.43 321.56,58.89 411.25,58.89 411.25,85.91 354.77,85.91 354.77,105.44 408.16,105.44 408.16,127.74 354.77,127.74 "
       id="polygon14"
       transform="matrix(0.68640799,0,0,0.68640799,39.345198,87.134883)" />
    <polygon
       class="q"
       points="426.22,58.89 461.37,58.89 486.6,150.2 488.23,150.2 513.13,58.89 548.62,58.89 514.11,175.43 460.56,175.43 "
       id="polygon15"
       transform="matrix(0.68640799,0,0,0.68640799,39.345198,87.134883)" />
    <polygon
       class="q"
       points="599.72,148.41 657.82,148.41 657.82,175.43 566.51,175.43 566.51,58.89 656.2,58.89 656.2,85.91 599.72,85.91 599.72,105.44 653.1,105.44 653.1,127.74 599.72,127.74 "
       id="polygon16"
       transform="matrix(0.68640799,0,0,0.68640799,39.345198,87.134883)" />
    <g
       class="m"
       clip-path="url(#d)"
       id="g18"
       transform="matrix(0.68640799,0,0,0.68640799,39.345198,87.134883)">
      <path
         class="q"
         d="M 678.81,175.43 V 58.89 h 58.76 c 28.48,0 47.36,15.95 47.36,39.72 0,19.04 -12.37,32.39 -29.3,35.48 l -1.3,0.33 34.34,41.02 h -38.25 l -28.97,-38.41 h -8.3 v 38.41 h -34.34 z m 34.34,-60.71 h 18.39 c 10.91,0 19.04,-5.86 19.04,-15.62 0,-9.76 -8.14,-15.46 -19.04,-15.46 h -18.39 v 31.09 z"
         id="path16" />
      <polygon
         class="q"
         points="839.78,148.41 897.89,148.41 897.89,175.43 806.58,175.43 806.58,58.89 896.26,58.89 896.26,85.91 839.78,85.91 839.78,105.44 893.17,105.44 893.17,127.74 839.78,127.74 "
         id="polygon17" />
      <path
         class="q"
         d="m 914.81,137.02 h 32.23 c 0.16,9.77 8.14,16.11 22.14,16.11 11.07,0 18.23,-4.07 18.23,-11.23 0,-8.46 -9.6,-10.42 -21.48,-12.04 -20.02,-2.77 -50.29,-5.21 -50.29,-35.16 0,-23.11 19.86,-38.09 50.62,-38.09 30.76,0 51.6,16.6 51.6,40.69 h -31.09 c 0,-10.26 -7.65,-16.11 -19.37,-16.11 -10.91,0 -17.42,4.56 -17.42,11.07 0,8.79 11.56,10.26 25.07,12.21 19.86,2.93 46.71,7.16 46.71,35.32 0,23.11 -21.32,38.09 -53.88,38.09 -32.56,0 -53.06,-16.76 -53.06,-40.85"
         id="path17" />
      <polygon
         class="q"
         points="1068.78,87.05 1032.32,87.05 1032.32,58.89 1139.59,58.89 1139.59,87.05 1103.13,87.05 1103.13,175.43 1068.78,175.43 "
         id="polygon18" />
    </g>
  </g>
  <g
     id="g16"
     mask="url(#mask16-6)"
     transform="matrix(1.8237098,0,0,1.8237098,-0.5182265,-0.51822534)">
    <circle
       cx="64.03392"
       cy="64.03392"
       r="64.03392"
       fill="url(#radial-gradient)"
       stroke-width="0"
       id="circle13"
       style="fill:url(#radial-gradient-1)" />
    <g
       clip-path="url(#clippath-2)"
       id="g15">
      <g
         id="g14">
        <polygon
           points="42.035928,128.06784 86.198552,128.06784 128.06784,128.06784 127.91906,68.32343 86.198552,37.46588 86.198552,60.074086 42.035928,27.309721 1.0004e-11,58.508567 0,128.06784 "
           fill="url(#linear-gradient)"
           stroke-width="0"
           id="polygon13"
           style="fill:url(#linear-gradient-1)" />
        <polygon
           points="86.198562,60.175133 86.198562,37.566934 70.870099,48.802914 "
           fill="#ffffff"
           stroke-width="0"
           id="polygon14-0" />
        <path
           d="m 38.763237,67.759224 c 2.990335,-2.053995 4.951441,-5.497907 4.951441,-9.399859 l -8.579382,-5.901845 6.725446,-4.922761 -6.616443,-4.964692 6.791802,-5.143195 V 27.410768 L 0,58.609614 v 37.87583 z"
           fill="#ffffff"
           stroke-width="0"
           id="path14" />
      </g>
    </g>
  </g>
</svg>
