<svg id="Layer_1" data-name="Layer 1" xmlns="http://www.w3.org/2000/svg" viewBox="0 0 55.22 55.22">
<defs><style>.cls-1{fill:#fff;}.cls-2{fill:#fec340;}.cls-3{fill:#0f385a;}</style></defs>
<title>everest_icon</title>
<circle class="cls-1" cx="27.61" cy="27.61" r="27.61"/>
<path class="cls-2" d="M59.68,35.11l-6.8-4.84,6.8-4.83L72,34.21A21.77,21.77,0,0,0,29.18,30l11.69-8.32Z" transform="translate(-22.66 -7.82)"/>
<path class="cls-3" d="M50.27,7.82A27.61,27.61,0,0,0,22.68,34.67L29.18,30A21.77,21.77,0,0,1,72,34.21L59.68,25.44v9.67L40.87,21.72v4.64a3.78,3.78,0,0,1-1.58,3.07L23.2,40.88a27.84,27.84,0,0,0,1.62,5.28l16-11.43v4.65a3.76,3.76,0,0,1-1.58,3.06L27.4,50.9A27.73,27.73,0,0,0,30.75,55l10.12-7.2v4.64a3.75,3.75,0,0,1-1.58,3.06l-4.24,3A27.62,27.62,0,0,0,77.74,38.29c.09-.94.14-1.89.14-2.86A27.61,27.61,0,0,0,50.27,7.82Z" transform="translate(-22.66 -7.82)"/>
<polygon class="cls-1" points="37.02 27.29 37.02 17.61 30.22 22.45 37.02 27.29"/>
</svg>
