<svg width="383" height="347" xmlns="http://www.w3.org/2000/svg" xmlns:xlink="http://www.w3.org/1999/xlink" xml:space="preserve" overflow="hidden"><g transform="translate(-190 -213)"><g><g><g><g><path d="M528.409 128.083C523.758 128.083 520.323 130.603 519.179 134.778L536.566 134.778C536.066 131.179 533.419 128.083 528.409 128.083ZM574.881 120.768C575.176 120.885 575.409 121.136 575.588 121.532L577.448 126.067C577.735 126.859 577.52 127.507 576.733 127.795L559.989 134.706 559.989 154.431C559.989 155.223 559.559 155.726 558.7 155.726L552.905 155.726C552.046 155.726 551.545 155.223 551.545 154.431L551.545 124.411C551.545 123.692 551.903 123.188 552.618 122.9L558.486 120.885C559.417 120.524 559.989 121.028 559.989 121.964L559.989 126.643 573.799 120.813C574.229 120.668 574.586 120.65 574.881 120.768ZM528.409 120.308C538.498 120.308 544.51 128.227 544.51 136.722L544.51 139.745C544.51 140.609 544.009 141.041 543.15 141.041L518.963 141.041C519.894 145.432 523.329 148.815 528.981 148.815 532.774 148.815 535.923 147.592 538.642 145.864 539.429 145.432 540.073 145.576 540.43 146.368L542.72 150.543C543.078 151.263 543.006 151.911 542.506 152.27 538.928 155.006 534.563 156.59 528.91 156.59 517.461 156.59 510.663 148.959 510.663 138.665 510.663 127.507 518.606 120.308 528.409 120.308ZM593.162 112.707C593.736 112.741 594.098 113.2 594.098 113.902L594.098 121.173 600.037 121.173C600.896 121.173 601.326 121.676 601.326 122.468L601.326 127.435C601.326 128.299 600.896 128.803 600.037 128.803L594.098 128.803 594.098 143.92C594.098 146.511 594.814 148.384 597.605 148.384 598.463 148.384 599.178 148.167 600.109 147.808 600.968 147.375 601.54 147.592 601.826 148.527L603.329 153.494C603.544 154.214 603.4 154.791 602.685 155.15 600.824 156.086 599.108 156.59 596.46 156.59 588.516 156.59 585.655 151.407 585.655 145.216L585.655 128.803 581.862 128.803C581.003 128.803 580.574 128.299 580.574 127.435L580.574 122.468C580.574 121.676 581.003 121.173 581.862 121.173L585.655 121.173 585.655 116.493C585.655 115.773 585.941 115.269 586.656 114.981L592.524 112.822C592.756 112.732 592.971 112.696 593.162 112.707Z" fill="#459F6A" fill-rule="evenodd" fill-opacity="1" transform="matrix(1 0 0 1.00262 -107.219 184)"/><path d="M655.259 311.098 645.477 320.989 631.641 330.158 621.369 340.878 605.815 352.949 570.38 366.518 532.443 372.782 480.826 364.799 433.595 345.273 395.737 323.342 354.084 286.159 326.668 246.389 314.947 204.712 313.669 168.102 324.767 127.622 332.95 112.863 302.207 113.695 321.062 85.6524 339.612 77.0355 339.931 45.2936 345.412 35.0963 350.388 38.0443 351.098 76.5583 386.176 111.905 359.487 113.459 408.218 166.418 472.568 218.548 546.304 256.937 597.759 271.991 636.89 292.933 651.587 305.002 655.259 311.098Z" fill="#FFFFFF" fill-rule="evenodd" fill-opacity="1" transform="matrix(1 0 0 1.00262 -107.219 184)"/><path d="M311.534 113.215 320.827 114.7 326.424 112.529 334.266 108.554 341.935 104.868 346.071 99.8726 350.142 104.244 356.879 109.411 363.485 112.149 374.195 114.576 373.766 110.011 368.416 104.489 360.572 97.884 357.779 94.6615 354.814 91.7292 348.143 87.7766 342.685 83.7595 338.185 85.4036 334.436 87.1013 330.579 90.3029 326.841 93.9664 321.954 98.9084 318.228 103.82C316.24 107.192 313.522 109.842 311.534 113.215Z" fill="#AFE2A7" fill-rule="evenodd" fill-opacity="1" transform="matrix(1 0 0 1.00262 -107.219 184)"/><path d="M345.141 110.272 367.048 136.967C375.406 146.818 385.871 159.548 395.289 169.374 404.708 179.199 413.171 186.937 423.558 195.918 433.945 204.901 445.151 214.639 457.611 223.266 470.07 231.892 484.324 240.494 498.318 247.679 512.311 254.863 527.815 260.993 541.572 266.371 555.33 271.749 569.382 276.012 580.862 279.946 592.342 283.88 603.02 287.11 610.45 289.971 617.88 292.831 621.886 295.226 625.444 297.108L631.796 301.263" stroke="#AFE2A7" stroke-width="7.72976" stroke-linecap="butt" stroke-linejoin="miter" stroke-miterlimit="8" stroke-opacity="1" fill="none" fill-rule="evenodd" transform="matrix(1 0 0 1.00262 -107.219 184)"/><path d="M332.921 137.518 385.533 196.119 426.253 229.257 486.739 269.403 509.626 281.002 554.548 293.902 581.108 304.935 603.002 311.636 621.372 320.029 577.344 335.229 556.505 338.951 528.667 338.525 495.341 333.28 464.868 322.279 429.904 304.307 396.797 280.383 375.117 262.053 358.417 240.011 344.91 216.334 335.625 193.982 329.705 169.706 328.243 151.988 332.921 137.518Z" fill="#AFE2A7" fill-rule="evenodd" fill-opacity="1" transform="matrix(1 0 0 1.00262 -107.219 184)"/><path d="M346.173 106.555 367.336 143.774C380.974 159.71 392.347 176.045 408.248 191.584 427.862 209.419 449.16 222.455 469.617 237.89 491.798 250.806 511.872 261.896 537.66 269.704L593.585 288.541 633.864 302.039 647.622 308.416 631.857 316.832 619.699 320.141C613.984 319.322 604.074 314.285 597.567 311.919L580.656 305.941C576.05 304.441 581.513 306.557 569.93 302.921L511.16 284.121 488.008 274.1 436.816 243.572 416.569 227.517 393.995 206.931 372.989 187.492 361.327 173.59 347.653 158.367 335.671 145.795 332.033 141.14 335.591 125.744 339.541 113.914 346.173 106.555Z" fill="#459F6A" fill-rule="evenodd" fill-opacity="1" transform="matrix(1 0 0 1.00262 -107.219 184)"/><path d="M347.249 106.714C351.363 114.729 354.849 122.868 359.592 130.758 364.334 138.647 369.321 145.984 375.705 154.048 382.089 162.113 389.447 170.531 397.893 179.144 406.341 187.758 416.628 197.415 426.39 205.733 436.151 214.052 445.621 221.609 456.463 229.054 467.305 236.5 478.998 243.788 491.439 250.406 503.878 257.025 517.75 263.495 531.102 268.766 544.454 274.037 559.567 278.218 571.552 282.029L607.508 293.463 637.891 303.406C645.504 305.676 649.996 306.32 653.182 307.086" stroke="#032F18" stroke-width="7.48042" stroke-linecap="butt" stroke-linejoin="miter" stroke-miterlimit="8" stroke-opacity="1" fill="none" fill-rule="evenodd" transform="matrix(1 0 0 1.00262 -107.219 184)"/><path d="M354.659 190.847C375.241 181.683 399.297 190.809 408.389 211.232 417.482 231.654 408.167 255.638 387.584 264.802 367.002 273.966 342.946 264.839 333.854 244.417 324.762 223.996 334.076 200.011 354.659 190.847Z" fill="#AFE2A7" fill-rule="evenodd" fill-opacity="1" transform="matrix(1 0 0 1.00262 -107.219 184)"/><path d="M339.588 209.497C349.62 191.481 372.086 184.858 389.77 194.704 407.452 204.551 413.655 227.136 403.624 245.152 412.108 226.275 403.939 204.268 385.378 195.999 369.069 188.732 349.762 194.423 339.588 209.497Z" fill="#FFFFFF" fill-rule="evenodd" fill-opacity="1" transform="matrix(1 0 0 1.00262 -107.219 184)"/><path d="M381.282 198.668C382.523 197.014 386.414 197.838 389.974 200.508 393.533 203.179 395.412 206.685 394.171 208.34 392.929 209.994 389.038 209.17 385.479 206.499 381.919 203.828 380.04 200.323 381.282 198.668Z" fill="#FFFFFF" fill-rule="evenodd" fill-opacity="1" transform="matrix(1 0 0 1.00262 -107.219 184)"/><path d="M396.009 254.803C383.958 268.085 361.839 267.645 346.603 253.823 331.368 239.999 328.786 218.025 340.837 204.744 351.429 228.009 371.827 246.517 396.009 254.803Z" fill="#459F6A" fill-rule="evenodd" fill-opacity="1" transform="matrix(1 0 0 1.00262 -107.219 184)"/><path d="M353.563 185.949C376.517 175.73 403.298 185.803 413.381 208.447 423.463 231.092 413.028 257.734 390.074 267.955 367.12 278.174 340.339 268.101 330.256 245.456 320.175 222.812 330.61 196.169 353.563 185.949ZM356.935 193.521C338.162 201.88 329.608 223.622 337.829 242.085 346.049 260.549 367.931 268.74 386.704 260.382 405.476 252.024 414.03 230.282 405.81 211.818 397.589 193.355 375.707 185.163 356.935 193.521Z" fill="#032F18" fill-rule="evenodd" fill-opacity="1" transform="matrix(1 0 0 1.00262 -107.219 184)"/><path d="M420.845 253.693C438.876 240.185 464.359 243.737 477.762 261.628 491.165 279.519 487.413 304.974 469.382 318.481 451.35 331.99 425.867 328.437 412.464 310.547 399.061 292.656 402.814 267.202 420.845 253.693Z" fill="#AFE2A7" fill-rule="evenodd" fill-opacity="1" transform="matrix(1 0 0 1.00262 -107.219 184)"/><path d="M410.295 275.225C416.073 255.43 436.506 243.98 455.935 249.651 475.364 255.322 486.431 275.966 480.654 295.76 484.731 275.469 471.876 255.827 451.941 251.89 434.425 248.429 416.866 258.268 410.295 275.225Z" fill="#FFFFFF" fill-rule="evenodd" fill-opacity="1" transform="matrix(1 0 0 1.00262 -107.219 184)"/><path d="M448.541 255.402C449.384 253.513 453.36 253.452 457.425 255.265 461.488 257.078 464.099 260.079 463.256 261.968 462.413 263.857 458.436 263.918 454.373 262.106 450.309 260.293 447.698 257.291 448.541 255.402Z" fill="#FFFFFF" fill-rule="evenodd" fill-opacity="1" transform="matrix(1 0 0 1.00262 -107.219 184)"/><path d="M475.374 306.862C466.576 322.489 444.911 326.976 426.985 316.883 409.058 306.791 401.659 285.941 410.457 270.313 425.954 290.644 449.954 304.156 475.374 306.862Z" fill="#459F6A" fill-rule="evenodd" fill-opacity="1" transform="matrix(1 0 0 1.00262 -107.219 184)"/><path d="M418.689 249.162C438.798 234.096 467.148 237.966 482.01 257.804 496.872 277.642 492.618 305.937 472.509 321.003 452.401 336.067 424.051 332.197 409.189 312.359 394.327 292.521 398.58 264.226 418.689 249.162ZM423.658 255.794C407.213 268.115 403.704 291.215 415.821 307.39 427.94 323.565 451.094 326.69 467.54 314.369 483.986 302.048 487.495 278.949 475.377 262.773 463.259 246.598 440.104 243.474 423.658 255.794Z" fill="#032F18" fill-rule="evenodd" fill-opacity="1" transform="matrix(1 0 0 1.00262 -107.219 184)"/><path d="M499.756 297.779C514.227 280.511 539.848 278.152 556.982 292.51 574.115 306.869 576.273 332.508 561.801 349.776 547.33 367.044 521.709 369.403 504.576 355.045 487.442 340.686 485.285 315.047 499.756 297.779Z" fill="#AFE2A7" fill-rule="evenodd" fill-opacity="1" transform="matrix(1 0 0 1.00262 -107.219 184)"/><path d="M494.4 321.15C495.506 300.56 512.786 284.748 532.997 285.833 553.207 286.918 568.694 304.49 567.589 325.081 566.926 304.395 549.926 288.207 529.619 288.924 511.775 289.553 496.926 303.141 494.401 321.15Z" fill="#FFFFFF" fill-rule="evenodd" fill-opacity="1" transform="matrix(1 0 0 1.00262 -107.219 184)"/><path d="M527.11 293.121C527.499 291.089 531.358 290.122 535.728 290.958 540.098 291.796 543.326 294.122 542.937 296.153 542.547 298.184 538.689 299.153 534.318 298.315 529.948 297.477 526.721 295.152 527.11 293.121Z" fill="#FFFFFF" fill-rule="evenodd" fill-opacity="1" transform="matrix(1 0 0 1.00262 -107.219 184)"/><path d="M564.983 337.095C559.984 354.317 539.917 363.632 520.159 357.899 500.403 352.166 488.438 333.556 493.436 316.332 513.166 332.587 539.616 340.263 564.983 337.095Z" fill="#459F6A" fill-rule="evenodd" fill-opacity="1" transform="matrix(1 0 0 1.00262 -107.219 184)"/><path d="M496.622 293.859C512.761 274.601 541.245 271.896 560.244 287.818 579.243 303.739 581.562 332.258 565.422 351.516 549.283 370.773 520.799 373.478 501.8 357.557 482.802 341.636 480.483 313.117 496.622 293.859ZM502.974 299.183C489.776 314.933 491.633 338.224 507.123 351.205 522.614 364.186 545.871 361.941 559.069 346.193 572.269 330.443 570.411 307.152 554.92 294.17 539.43 281.189 516.173 283.433 502.974 299.183Z" fill="#032F18" fill-rule="evenodd" fill-opacity="1" transform="matrix(1 0 0 1.00262 -107.219 184)"/><path d="M338.581 110.696C336.232 114.975 334.549 116.525 332.472 122.417 330.394 128.308 327.041 137.391 326.117 146.046 325.195 154.701 325.022 163.292 326.933 174.346 328.844 185.4 332.781 200.45 337.584 212.369 342.387 224.289 348.55 235.505 355.75 245.862 362.951 256.218 371.443 265.427 380.788 274.508 390.134 283.589 399.596 291.832 411.821 300.346 424.047 308.859 440.382 318.921 454.139 325.591 467.897 332.261 481.738 336.864 494.367 340.365 506.996 343.866 517.659 345.994 529.915 346.596 542.171 347.197 556.083 345.799 567.903 343.976 579.723 342.152 589.545 339.644 600.836 335.656 612.127 331.668 627.407 323.905 635.649 320.045 637.753 318.998 645.073 314.762 647.237 313.848" stroke="#FFFFFF" stroke-width="7.97911" stroke-linecap="butt" stroke-linejoin="miter" stroke-miterlimit="8" stroke-opacity="1" fill="none" fill-rule="evenodd" transform="matrix(1 0 0 1.00262 -107.219 184)"/><path d="M334.243 111.783 325.924 132.948C324.111 140.044 323.657 147.617 323.365 154.363 323.072 161.108 323.295 166.325 324.17 173.421 325.046 180.518 327.137 189.102 328.62 196.942 331.053 204.993 334.773 213.425 338.775 221.729 342.779 230.032 348.016 238.418 352.637 246.762 358.035 256.004 368.695 266.418 377.746 275.312 386.798 284.207 397.117 292.753 406.95 300.13 416.782 307.508 426.418 313.856 436.741 319.579 447.064 325.302 457.973 329.781 468.888 334.467L496.412 344.258C506.719 346.41 518.868 348.379 528.707 349.132 538.545 349.885 547.409 349.392 555.444 348.776 563.48 348.161 569.589 347.057 576.92 345.439 584.251 343.821 592.016 341.814 599.428 339.066 606.839 336.318 614.068 332.323 621.389 328.951 627.021 326.391 630.028 324.976 633.219 323.704L640.539 321.32 641.79 324.433 624.516 340.292 595.412 359.026 561.343 368.097 523.66 369.494 484.794 359.119 448.737 344.477 411.254 322.27 385.673 302.766 358.461 280.319 340.479 259.386 330.479 241.601 322.628 221.136 315.924 202.536 314.978 179.44 315.907 159.828 318.815 144.947 323.77 128.51 329.734 117.02 334.243 111.783Z" fill="#AFE2A7" fill-rule="evenodd" fill-opacity="1" transform="matrix(1 0 0 1.00262 -107.219 184)"/><path d="M314.405 169.507C315.71 169.104 316.888 185.719 319.282 194.548 321.677 203.376 322.86 210.499 328.769 222.478 334.68 234.457 342.785 252.277 354.744 266.421 366.704 280.565 383.545 295.14 400.529 307.341 417.513 319.542 439.345 331.695 456.648 339.628 473.951 347.56 488.186 352.045 504.35 354.938 520.514 357.83 538.193 358.133 553.633 356.984 569.072 355.835 585.938 350.306 596.989 348.044 608.039 345.782 619.902 342.215 619.936 343.41L597.19 355.216 548.538 370.675 493.099 368.347 444.719 348.746 389.333 315.172 350.358 280.957 323.7 243.116 312.284 202.418 314.405 169.507Z" fill="#459F6A" fill-rule="evenodd" fill-opacity="1" transform="matrix(1 0 0 1.00262 -107.219 184)"/><path d="M352.088 104.336 387.402 144.202C398.248 156.007 406.478 165.163 417.167 175.167 427.856 185.171 438.757 194.818 451.539 204.225 464.32 213.634 476.75 222.496 493.856 231.616 510.962 240.736 533.519 250.767 554.177 258.947 574.834 267.129 602.927 274.256 617.802 280.702 632.677 287.147 637.293 293.215 643.426 297.622 649.558 302.028 649.261 305.137 654.597 307.139 659.932 309.14 673.584 308.437 675.437 309.631 677.289 310.825 675.485 315.746 674.619 316.393 673.753 317.038 673.934 312.412 672.282 311.53 670.631 310.649 668.624 308.493 665.68 308.488 662.736 308.483 661.53 307.087 652.58 313.478 643.629 319.871 629.116 337.478 611.978 346.839 594.839 356.2 570.924 366.819 549.747 369.643 528.569 372.469 509.924 371.731 484.914 363.789 459.902 355.845 423.542 337.588 399.681 321.987 375.82 306.385 355.238 286.447 341.748 270.18 328.259 253.911 323.631 238.106 318.744 224.38 313.855 210.654 311.988 194.829 312.419 187.823 312.851 180.819 313.311 168.12 315.621 157.906 317.931 147.691 321.627 136.051 326.281 126.538 330.935 117.025 339.574 109.743 343.543 100.827 347.51 91.9102 336.461 108.145 333.235 110.294 330.008 112.444 327.501 112.895 324.181 113.723 320.863 114.551 316.745 115.228 313.323 115.262 309.901 115.296 305.515 114.496 303.65 113.928 301.786 113.36 302.015 112.829 302.136 111.855 302.256 110.881 302.344 111.063 304.369 108.084 306.396 105.105 310.474 98.4424 314.294 93.9786 318.114 89.5147 324.107 83.9209 327.291 81.3013 330.476 78.6816 331.635 78.8967 333.403 78.2605 335.172 77.6243 337 76.689 337.9 77.4839 338.801 78.2787 338.882 80.7171 338.807 83.0295 338.732 85.342 337.411 92.0231 337.453 91.3585 337.495 90.694 338.695 81.655 339.059 79.0423 339.422 76.4295 346.858 77.8366 346.911 77.0952 346.964 76.3536 340.483 76.5605 339.377 74.5931 338.269 72.6258 338.449 67.8357 338.3 64.7031 338.151 61.5706 338.382 58.6123 338.482 55.7977 338.582 52.9832 338.653 50.217 338.9 47.8161 339.147 45.4152 339.424 43.2936 339.963 41.3921 340.502 39.4906 341.243 37.5784 342.132 36.4074 343.022 35.2364 344.107 34.5076 345.301 34.366 346.495 34.2245 348.417 34.8402 349.298 35.558 350.178 36.2758 350.435 37.2767 350.587 38.6732 350.739 40.0697 350.342 41.4017 350.211 43.937 350.081 46.4721 349.911 50.617 349.804 53.8844 349.698 57.1519 349.515 60.8005 349.569 63.5419 349.623 66.2831 349.924 67.924 350.13 70.3321 350.336 72.7401 350.235 75.7238 350.806 77.9901 351.377 80.2565 352.845 81.8333 353.556 83.9304 354.268 86.0276 355.223 91.3144 355.074 90.5732 354.926 89.832 352.275 81.1238 352.665 79.4831 353.054 77.8424 355.222 79.0823 357.412 80.7289 359.603 82.3754 363.272 86.4729 365.805 89.3625 368.339 92.2519 370.448 95.5647 372.613 98.0657 374.778 100.567 376.917 102.535 378.794 104.369L385.714 109.871C386.136 110.631 388.643 111.259 386.981 112.15 385.319 113.041 379.328 114.893 375.741 115.218 372.155 115.545 368.363 115.284 365.462 114.104 363.156 112.888 360.566 111.634 355.985 108.198L349.795 102.503C348 100.768 343.854 99.0908 344.879 96.9993" stroke="#032F18" stroke-width="7.23107" stroke-linecap="butt" stroke-linejoin="miter" stroke-miterlimit="8" stroke-opacity="1" fill="none" fill-rule="evenodd" transform="matrix(1 0 0 1.00262 -107.219 184)"/><path d="M345.796 103.901C343.758 107.553 341.72 111.207 339.834 115.886 337.948 120.564 335.982 124.88 334.479 131.976 332.976 139.07 330.724 149.248 330.818 158.456 330.913 167.664 332.29 177.022 335.045 187.222 337.8 197.422 341.707 208.525 347.347 219.658 352.986 230.791 361.422 244.317 368.882 254.018 376.343 263.719 383.369 270.139 392.11 277.862 400.85 285.583 411.03 293.615 421.321 300.351 431.611 307.085 442.708 312.992 453.852 318.27 464.996 323.549 476.527 328.415 488.186 332.023 499.845 335.631 512.497 338.602 523.81 339.919 535.121 341.238 546.137 340.652 556.058 339.931 565.979 339.21 573.169 338.302 583.335 335.591 593.501 332.881 606.927 327.832 617.054 323.665 627.181 319.499 637.778 313.501 644.095 310.592 647.72 309.173 650.674 307.712 652.628 307.086" stroke="#032F18" stroke-width="6.73238" stroke-linecap="butt" stroke-linejoin="miter" stroke-miterlimit="8" stroke-opacity="1" fill="none" fill-rule="evenodd" transform="matrix(1 0 0 1.00262 -107.219 184)"/></g></g></g></g></g></svg>
