<svg
   fill="#243746"
   width="40"
   height="40"
   viewBox="0 0 40 40"
>
  <circle
     style="fill: #d5eaf4"
     cx="20"
     cy="20"
     r="20"
  />
  <g transform="translate(8.0 8.0)">
    <path data-testid="eds-icon-path" d="M15 2H6c-.83 0-1.54.5-1.84 1.22l-3.02 7.05c-.09.23-.14.47-.14.73v2c0 1.1.9 2 2 2h6.31l-.95 4.57-.03.32c0 .41.17.79.44 1.06L9.83 22l6.59-6.59c.36-.36.58-.86.58-1.41V4c0-1.1-.9-2-2-2Zm0 12-4.34 4.34L12 13H3v-2l3-7h9v10Zm8-12h-4v12h4V2Z" fill-rule="evenodd" clip-rule="evenodd" class="sc-guDMob iNmBhu"></path>
  </g>
</svg>
